<svg xmlns="http://www.w3.org/2000/svg" viewBox="0 0 180 180" role="img" aria-label="English Course">
  <defs>
    <linearGradient id="bg" x1="0%" y1="0%" x2="100%" y2="100%">
      <stop offset="0%" stop-color="#2563eb"/>
      <stop offset="100%" stop-color="#1d4ed8"/>
    </linearGradient>
  </defs>
  <rect width="180" height="180" rx="40" fill="url(#bg)"/>
  <path fill="#fff" d="M48 42h58a10 10 0 0 1 10 10v78a6 6 0 0 0-6-6H56a10 10 0 0 1-10-10V52a10 10 0 0 1 10-10z" opacity=".95"/>
  <path fill="#dbeafe" d="M106 48h24a10 10 0 0 1 10 10v66a6 6 0 0 1-6 6h-28V48z"/>
  <text x="90" y="112" text-anchor="middle" font-family="system-ui, sans-serif" font-size="42" font-weight="700" fill="#1d4ed8">EN</text>
</svg>
