<svg xmlns="http://www.w3.org/2000/svg" viewBox="0 0 64 64" role="img" aria-label="English Course">
  <defs>
    <linearGradient id="bg" x1="0%" y1="0%" x2="100%" y2="100%">
      <stop offset="0%" stop-color="#2563eb"/>
      <stop offset="100%" stop-color="#1d4ed8"/>
    </linearGradient>
  </defs>
  <rect width="64" height="64" rx="14" fill="url(#bg)"/>
  <path fill="#fff" d="M18 16h20a4 4 0 0 1 4 4v28a2 2 0 0 0-2-2H20a4 4 0 0 1-4-4V20a4 4 0 0 1 4-4z" opacity=".95"/>
  <path fill="#dbeafe" d="M38 18h8a4 4 0 0 1 4 4v24a2 2 0 0 1-2 2H38V18z"/>
  <text x="32" y="40" text-anchor="middle" font-family="system-ui, sans-serif" font-size="16" font-weight="700" fill="#1d4ed8">EN</text>
</svg>
